<svg id="Laag_1" data-name="Laag 1" xmlns="http://www.w3.org/2000/svg" xmlns:xlink="http://www.w3.org/1999/xlink" viewBox="0 0 504.06 504.06"><defs><style>.cls-1{fill:url(#Naamloos_verloop_156);}.cls-2{fill:#fff;}</style><linearGradient id="Naamloos_verloop_156" x1="378.07" y1="33.73" x2="125.99" y2="470.33" gradientUnits="userSpaceOnUse"><stop offset="0" stop-color="#fad2a5"/><stop offset="0.35" stop-color="#f8bc7a"/><stop offset="0.78" stop-color="#f6a34a"/><stop offset="1" stop-color="#f59a38"/></linearGradient></defs><title>Logo_CakeCalendar</title><circle class="cls-1" cx="252.03" cy="252.03" r="252.03"/><path class="cls-2" d="M262.62,373.6c9.72,4.41,17.71,1.47,24.95-4.8,3.11-2.7,6-5.67,9-8.49,1.61-1.51,3.19-3.06,4.91-4.43,5-4,7.8-4.08,12.71.11,3.5,3,6.67,6.34,10.06,9.45A74.33,74.33,0,0,0,331,371.2c8.58,6.17,17.69,6.22,26.06-.2,4.32-3.31,8.1-7.3,12.17-10.95,2.06-1.86,4.13-3.72,6.32-5.42,2.93-2.27,6.12-2.4,9-.09,3.28,2.62,6.3,5.59,9.45,8.37,3.38,3,6.55,6.25,10.23,8.8,7.79,5.43,16,5.66,23.88.19,4.14-2.89,7.7-6.59,11.52-9.93,2.88-2.52,5.67-5.16,8.68-7.52a6.42,6.42,0,0,1,8.49,0c2.93,2.31,5.69,4.83,8.47,7.32,3.28,2.94,6.32,6.19,9.79,8.88,8.86,6.88,18.29,6.89,27.23.1,3.19-2.43,6-5.32,9-8,2.7-2.45,5.23-5.09,8.08-7.35,4.34-3.43,7.08-3.49,11.31.11,4.82,4.09,9.24,8.64,13.94,12.87,5.45,4.92,11.59,8.29,19.26,7.14a60.3,60.3,0,0,0,7.34-2.06c.09.19.23.35.23.51,0,16.59.19,33.19-.14,49.77-.17,8.48-7.1,14.57-16,15-2.1.1-4.22,0-6.33,0H280.88c-9.39,0-15.65-4.18-17.8-11.95a17,17,0,0,1-.6-4.54q-.08-23.59-.05-47.18A14.49,14.49,0,0,1,262.62,373.6Z" transform="translate(-165 -38.68)"/><path class="cls-2" d="M416.57,307.83h52.61l68.13-.09c5.36,0,10.72,0,16.08,0,11.2,0,18,6.52,18.15,17.75.16,9.39.09,18.79,0,28.19a5.31,5.31,0,0,1-1.55,3.41c-7.12,6.74-10.22,6.7-17.5,0-4.65-4.28-9.05-8.88-14-12.8-8.52-6.76-17.74-6.84-26.46-.32-4,3-7.55,6.77-11.33,10.15a89,89,0,0,1-7.17,6.19c-3.73,2.68-6,2.71-9.65-.19s-6.8-6.18-10.22-9.25a101.06,101.06,0,0,0-8.26-7.12c-8.5-6.11-17.47-6.12-25.8.22-4.17,3.18-7.81,7.06-11.74,10.56-2.36,2.1-4.75,4.17-7.23,6.11-2.9,2.27-6,2-8.72-.17s-5.23-4.5-7.79-6.8c-3.34-3-6.46-6.31-10-9.07-9.28-7.23-18.72-7.27-27.87.07-4.77,3.82-9,8.31-13.52,12.46-7.33,6.73-10.13,6.71-17.51-.08-4.52-4.14-8.79-8.59-13.54-12.44-8.87-7.17-18.34-7.27-27.39-.29-4.24,3.27-7.95,7.2-11.89,10.84-1.2,1.1-2.34,2.27-3.58,3.33-5.66,4.87-8.9,4.9-14.48-.14a5.93,5.93,0,0,1-1.79-3.84q-.21-15.11,0-30.21c.11-9.78,7.11-16.42,16.95-16.39q19.13.06,38.23,0c17.64,0,35.28-.07,52.91-.09Z" transform="translate(-165 -38.68)"/><path class="cls-2" d="M530,256.25v4.26q0,12.08,0,24.14c0,8.07-5.13,13.41-13.24,13.43-26.26.09-52.53.05-78.79.07-19.84,0-39.67.07-59.51.07q-28.47,0-56.93-.1c-7,0-12.67-4.83-12.86-11.37-.29-10.05-.07-20.11-.07-30.06.32-.19.5-.38.62-.34,8.21,2.15,14.83-1,20.74-6.3,3-2.7,5.79-5.6,8.76-8.31a72.25,72.25,0,0,1,6.18-5.14c3.06-2.25,6.36-2.27,9.3.12,3.48,2.84,6.7,6,10.08,9a106.15,106.15,0,0,0,8.73,7.46c7.39,5.23,15.12,5.36,22.45.07,4.24-3.06,7.91-6.94,11.86-10.41,2.45-2.14,4.86-4.35,7.46-6.29a6.81,6.81,0,0,1,8.8,0c3.1,2.39,6,5.08,8.9,7.68s5.95,5.75,9.2,8.25c8,6.11,16.32,6.23,24.37.23,3.74-2.8,7-6.25,10.5-9.38,2.35-2.1,4.61-4.33,7.14-6.22,3.83-2.87,6.64-2.91,10.49,0,2.75,2.06,5.2,4.52,7.74,6.85,1.76,1.62,3.39,3.39,5.16,5C515.26,256.3,519.06,257.52,530,256.25Z" transform="translate(-165 -38.68)"/><path class="cls-2" d="M419.43,196.54q48.61,0,97.24,0c7.8,0,13.21,5.3,13.31,13.15.12,9.87,0,19.75,0,29.63a6.1,6.1,0,0,1-9.16,5.61,33.22,33.22,0,0,1-6.46-4.72c-4.3-3.81-8.24-8.06-12.71-11.64-8.45-6.74-17-6.73-25.48-.07-3.76,3-7.06,6.48-10.62,9.68-2.28,2-4.57,4.09-7,5.91a7.06,7.06,0,0,1-9.07,0c-2.52-1.89-4.85-4-7.21-6.14-3.57-3.2-6.9-6.69-10.66-9.63-8.1-6.34-16.73-6.42-24.79-.07-4.57,3.61-8.66,7.85-12.93,11.83-8,7.46-11.15,7.47-19.18,0-4.07-3.78-7.93-7.83-12.25-11.3-8.7-7-17.15-7-25.93-.08-4.05,3.19-7.56,7.05-11.44,10.48a56.62,56.62,0,0,1-7.23,5.61c-2.87,1.8-5.77.95-8.27-1a3.47,3.47,0,0,1-1-2.45c-.06-10.83-.15-21.67,0-32.5.11-7.18,5.75-12.25,13.25-12.26q47.19,0,94.36,0h3.17Z" transform="translate(-165 -38.68)"/><path class="cls-2" d="M363.87,172.13c0-4.5.05-9,0-13.49,0-1.85.68-2.59,2.52-2.58,4.59.05,9.19,0,13.78,0,1.7,0,2.37.67,2.36,2.4-.05,9.19-.08,18.38,0,27.57,0,2.07-.83,2.65-2.75,2.61-4.4-.08-8.8-.1-13.2,0-2,0-2.74-.76-2.71-2.69.06-4.6,0-9.19,0-13.79Z" transform="translate(-165 -38.68)"/><path class="cls-2" d="M428.56,172.39c0,4.5-.06,9,0,13.5,0,1.94-.63,2.76-2.66,2.71-4.49-.09-9-.08-13.49,0-1.89,0-2.53-.77-2.52-2.57q.06-13.78,0-27.56c0-1.72.71-2.41,2.4-2.4,4.59,0,9.19,0,13.78,0,1.88,0,2.51.77,2.48,2.58C428.52,163.21,428.57,167.8,428.56,172.39Z" transform="translate(-165 -38.68)"/><path class="cls-2" d="M474.69,172.44c0,4.5,0,9,0,13.5,0,1.95-.68,2.73-2.7,2.67-4.4-.11-8.81-.12-13.21,0-2.18.06-2.81-.84-2.79-2.89q.11-13.36,0-26.71c0-2,.56-3,2.74-3q6.6.13,13.21,0c2.21-.06,2.79.91,2.75,2.93-.1,4.5,0,9,0,13.5Z" transform="translate(-165 -38.68)"/><path class="cls-2" d="M419.54,121.5c2.88,4.9,6,9.67,8.55,14.76a9,9,0,0,1-3.17,11.42,10.33,10.33,0,0,1-12.29-.18c-3.54-2.81-4.93-7.44-2.81-11.56,2.55-5,5.64-9.65,8.49-14.46Z" transform="translate(-165 -38.68)"/><path class="cls-2" d="M374.1,121.6c2.87,4.92,6.12,9.67,8.49,14.82,2.47,5.36-.78,11.21-6.42,12.85a9.91,9.91,0,0,1-12.46-7.12,8.56,8.56,0,0,1,.29-5.27c2.66-5.23,5.71-10.25,8.62-15.35Z" transform="translate(-165 -38.68)"/><path class="cls-2" d="M466.18,121.49c2.9,4.91,6.07,9.68,8.61,14.76a9.12,9.12,0,0,1-3,11.27,10.4,10.4,0,0,1-12.31.14c-3.6-2.67-5.19-7.33-3.12-11.46,2.53-5.08,5.69-9.84,8.58-14.73Z" transform="translate(-165 -38.68)"/></svg>